<mxfile host="Electron" agent="Mozilla/5.0 (Macintosh; Intel Mac OS X 10_15_7) AppleWebKit/537.36 (KHTML, like Gecko) draw.io/24.7.17 Chrome/128.0.6613.36 Electron/32.0.1 Safari/537.36" version="24.7.17">
  <diagram name="페이지-1" id="ChA3UUHHeJCHhCyX0NNa">
    <mxGraphModel dx="984" dy="718" grid="1" gridSize="10" guides="1" tooltips="1" connect="1" arrows="1" fold="1" page="1" pageScale="1" pageWidth="827" pageHeight="1169" math="0" shadow="0">
      <root>
        <mxCell id="0" />
        <mxCell id="1" parent="0" />
        <mxCell id="b5e2b1vcL281J5o6nynh-8" value="" style="shape=image;verticalLabelPosition=bottom;labelBackgroundColor=default;verticalAlign=top;aspect=fixed;imageAspect=0;image=https://files.oaiusercontent.com/file-bTAmMvcIqDRSM6J6sCHDc4yt?se=2024-11-16T18%3A49%3A14Z&amp;sp=r&amp;sv=2024-08-04&amp;sr=b&amp;rscc=max-age%3D299%2C%20immutable%2C%20private&amp;rscd=attachment%3B%20filename%3Dd14f6753-8020-4edc-a67d-a5393c7a3ed6&amp;sig=2cqC0wyNopbDDcFK3e2m2HCFQ9lfRMfgS8EAA0EcMZw%3D;" vertex="1" parent="1">
          <mxGeometry x="3" y="80" width="677.12" height="360" as="geometry" />
        </mxCell>
        <mxCell id="b5e2b1vcL281J5o6nynh-2" value="" style="endArrow=none;dashed=1;html=1;rounded=0;fillColor=#d5e8d4;strokeColor=#00CC00;strokeWidth=4;" edge="1" parent="1">
          <mxGeometry width="50" height="50" relative="1" as="geometry">
            <mxPoint x="392" y="404" as="sourcePoint" />
            <mxPoint x="392" y="94" as="targetPoint" />
          </mxGeometry>
        </mxCell>
        <mxCell id="b5e2b1vcL281J5o6nynh-3" style="edgeStyle=orthogonalEdgeStyle;rounded=0;orthogonalLoop=1;jettySize=auto;html=1;curved=1;fillColor=#d5e8d4;strokeColor=#82b366;dashed=1;dashPattern=8 8;" edge="1" parent="1" source="b5e2b1vcL281J5o6nynh-4">
          <mxGeometry relative="1" as="geometry">
            <mxPoint x="390" y="299.9999999999999" as="targetPoint" />
            <Array as="points">
              <mxPoint x="480" y="300" />
            </Array>
          </mxGeometry>
        </mxCell>
        <mxCell id="b5e2b1vcL281J5o6nynh-4" value="&lt;font style=&quot;font-size: 18px;&quot;&gt;결정경계 P(x | M) = P(x | F)&lt;/font&gt;" style="text;strokeColor=#82b366;align=center;fillColor=none;html=1;verticalAlign=middle;whiteSpace=wrap;rounded=0;" vertex="1" parent="1">
          <mxGeometry x="240" y="460" width="240" height="30" as="geometry" />
        </mxCell>
        <mxCell id="b5e2b1vcL281J5o6nynh-5" value="" style="ellipse;whiteSpace=wrap;html=1;aspect=fixed;fillColor=#d80073;strokeColor=#A50040;fontColor=#ffffff;" vertex="1" parent="1">
          <mxGeometry x="468" y="160" width="10" height="10" as="geometry" />
        </mxCell>
        <mxCell id="b5e2b1vcL281J5o6nynh-6" value="&lt;font color=&quot;#ff0080&quot; style=&quot;font-size: 15px;&quot;&gt;데이터 X&lt;/font&gt;" style="text;strokeColor=none;align=center;fillColor=none;html=1;verticalAlign=middle;whiteSpace=wrap;rounded=0;" vertex="1" parent="1">
          <mxGeometry x="480" y="140" width="70" height="30" as="geometry" />
        </mxCell>
        <mxCell id="b5e2b1vcL281J5o6nynh-7" value="&lt;font style=&quot;font-size: 12px;&quot;&gt;P(x | M) &amp;gt; P(x | F)&lt;/font&gt;" style="text;strokeColor=none;align=center;fillColor=none;html=1;verticalAlign=middle;whiteSpace=wrap;rounded=0;fontSize=12;" vertex="1" parent="1">
          <mxGeometry x="500" y="160" width="110" height="30" as="geometry" />
        </mxCell>
      </root>
    </mxGraphModel>
  </diagram>
</mxfile>
